<svg width="26" height="20" viewBox="0 0 26 20" fill="none" xmlns="http://www.w3.org/2000/svg">
<path d="M1.68125 11.2499H20.2979L12.1646 17.3499C11.5146 17.8374 11.5146 18.6374 12.1646 19.1249C12.8146 19.6124 13.8646 19.6124 14.5146 19.1249L25.4979 10.8874C26.1479 10.3999 26.1479 9.61238 25.4979 9.12488L14.5313 0.874884C14.2199 0.640819 13.7971 0.509277 13.3563 0.509277C12.9154 0.509277 12.4926 0.640819 12.1813 0.874884C11.5313 1.36238 11.5313 2.14988 12.1813 2.63738L20.2979 8.74988H1.68125C0.764587 8.74988 0.0145874 9.31238 0.0145874 9.99988C0.0145874 10.6874 0.764587 11.2499 1.68125 11.2499Z" fill="#4DA0FD"/>
</svg>
