<svg width="26" height="20" viewBox="0 0 26 20" fill="none" xmlns="http://www.w3.org/2000/svg">
<path d="M24.3187 8.75623H5.70208L13.8354 2.65623C14.4854 2.16873 14.4854 1.36873 13.8354 0.881232C13.524 0.647166 13.1013 0.515625 12.6604 0.515625C12.2196 0.515625 11.7968 0.647166 11.4854 0.881232L0.50208 9.11873C-0.14792 9.60623 -0.14792 10.3937 0.50208 10.8812L11.4854 19.1187C12.1354 19.6062 13.1854 19.6062 13.8354 19.1187C14.4854 18.6312 14.4854 17.8437 13.8354 17.3562L5.70208 11.2562H24.3187C25.2354 11.2562 25.9854 10.6937 25.9854 10.0062C25.9854 9.31873 25.2354 8.75623 24.3187 8.75623Z" fill="#DADADA"/>
</svg>
